<svg width="327" height="689" viewBox="0 0 327 689" fill="none" xmlns="http://www.w3.org/2000/svg">
<path d="M27.0498 0.999978L15.2537 0.999977V0.999977C7.38159 0.999976 0.999999 7.38157 0.999999 15.2537L1 265.031C1.00001 272.903 7.3816 279.285 15.2537 279.285V279.285L179.803 279.285C185.852 279.285 190.755 284.188 190.755 290.237V290.237L190.755 602.775C190.755 616.3 201.72 627.265 215.245 627.265V627.265L298.5 627.265L301.607 627.265C315.079 627.265 326 638.186 326 651.658V651.658L326 661.117V661.117C326 675.964 313.964 688 299.117 688L283 688L220 688" stroke="#B62519" stroke-width="2"/>
</svg>
