<svg width="327" height="822" viewBox="0 0 327 822" fill="none" xmlns="http://www.w3.org/2000/svg">
<path d="M28.0833 0.999974L15.8192 0.999973V0.999973C7.63479 0.999972 1.00001 7.63475 1.00001 15.8192L1.00001 328.846C1.00001 337.03 7.63479 343.665 15.8192 343.665V343.665L183.54 343.665C189.43 343.665 194.204 348.44 194.204 354.33V354.33L194.204 725.806C194.204 743.586 208.618 758 226.398 758V758L300 758V758C314.359 758 326 769.641 326 784V789.25C326 806.509 312.009 820.5 294.75 820.5L200 820.5L167 820.5" stroke="#1E4D7D" stroke-width="2"/>
</svg>
