<svg width="35" height="43" viewBox="0 0 35 43" fill="none" xmlns="http://www.w3.org/2000/svg">
<path d="M35 6.99959C35 5.40829 34.3678 3.88217 33.2426 2.75695C32.1174 1.63173 30.5913 0.999589 29 0.999589C27.4087 0.999589 25.8825 1.63173 24.7573 2.75695C23.6321 3.88217 23 5.40829 23 6.99959C23 9.40209 24.42 11.4596 26.46 12.4171C26.255 16.3771 23.285 17.7221 18.1225 19.6571C15.9475 20.4746 13.55 21.3796 11.5 22.7421V12.4396C12.7455 11.8716 13.759 10.894 14.3715 9.66968C14.984 8.44537 15.1587 7.04818 14.8664 5.71075C14.5741 4.37332 13.8326 3.17636 12.7652 2.31916C11.6978 1.46197 10.3689 0.996261 8.99996 0.999589C8.18606 0.626526 7.29891 0.440579 6.40371 0.455412C5.50851 0.470246 4.62801 0.685485 3.82693 1.08531C3.02584 1.48513 2.32452 2.05938 1.77452 2.76585C1.22451 3.47232 0.839803 4.29305 0.648658 5.16773C0.457513 6.04241 0.464792 6.94881 0.66996 7.82031C0.875128 8.6918 1.27297 9.50625 1.83425 10.2038C2.39553 10.9013 3.10598 11.4643 3.91338 11.8512C4.72079 12.2381 5.60463 12.4391 6.49995 12.4396V31.5621C5.45689 32.0378 4.57248 32.8032 3.95198 33.7672C3.33148 34.7312 3.00103 35.8532 2.99995 36.9996C2.99995 38.5909 3.6321 40.117 4.75731 41.2422C5.88253 42.3674 7.40866 42.9996 8.99996 42.9996C10.5913 42.9996 12.1174 42.3674 13.2426 41.2422C14.3678 40.117 15 38.5909 15 36.9996C15 34.5971 13.58 32.5396 11.54 31.5821C11.745 27.6246 14.7175 26.2771 19.8775 24.3421C24.9525 22.4371 31.23 20.0646 31.4775 12.4521C32.5261 11.9773 33.4159 11.2107 34.0405 10.2438C34.6652 9.27697 34.9982 8.15069 35 6.99959ZM8.99996 3.53709C9.45433 3.53709 9.90425 3.62658 10.324 3.80047C10.7438 3.97435 11.1253 4.22921 11.4465 4.5505C11.7678 4.87179 12.0227 5.25322 12.1966 5.673C12.3705 6.09279 12.46 6.54272 12.46 6.99709C12.46 7.45146 12.3705 7.90139 12.1966 8.32117C12.0227 8.74096 11.7678 9.12239 11.4465 9.44368C11.1253 9.76497 10.7438 10.0198 10.324 10.1937C9.90425 10.3676 9.45433 10.4571 8.99996 10.4571C8.08231 10.4571 7.20224 10.0926 6.55337 9.44368C5.90449 8.7948 5.53996 7.91474 5.53996 6.99709C5.53996 6.07944 5.90449 5.19938 6.55337 4.5505C7.20224 3.90162 8.08231 3.53709 8.99996 3.53709ZM8.99996 40.4621C8.08164 40.4621 7.20094 40.0973 6.5516 39.4479C5.90225 38.7986 5.53745 37.9179 5.53745 36.9996C5.53745 36.0813 5.90225 35.2006 6.5516 34.5512C7.20094 33.9019 8.08164 33.5371 8.99996 33.5371C9.91827 33.5371 10.799 33.9019 11.4483 34.5512C12.0977 35.2006 12.4625 36.0813 12.4625 36.9996C12.4625 37.9179 12.0977 38.7986 11.4483 39.4479C10.799 40.0973 9.91827 40.4621 8.99996 40.4621ZM29 10.4621C28.0816 10.4621 27.2009 10.0973 26.5516 9.44795C25.9023 8.7986 25.5375 7.9179 25.5375 6.99959C25.5375 6.08128 25.9023 5.20058 26.5516 4.55123C27.2009 3.90189 28.0816 3.53709 29 3.53709C29.9183 3.53709 30.799 3.90189 31.4483 4.55123C32.0977 5.20058 32.4625 6.08128 32.4625 6.99959C32.4625 7.9179 32.0977 8.7986 31.4483 9.44795C30.799 10.0973 29.9183 10.4621 29 10.4621Z" fill="black"/>
</svg>
