<svg width="46" height="46" viewBox="0 0 46 46" fill="none" xmlns="http://www.w3.org/2000/svg">
<path d="M22.9999 0.0834961C10.3416 0.0834961 0.083252 10.3418 0.083252 23.0002C0.083252 35.6585 10.3416 45.9168 22.9999 45.9168C35.6541 45.9168 45.9166 35.6585 45.9166 23.0002C45.9166 10.3418 35.6541 0.0834961 22.9999 0.0834961ZM41.7499 23.0002C41.7486 26.3665 40.8334 29.6694 39.102 32.5564L34.4791 27.9356C35.1521 26.3773 35.4994 24.6978 35.4998 23.0004C35.5001 21.3029 35.1535 19.6233 34.4812 18.0647L39.1041 13.4439C40.8339 16.3315 41.7483 19.6341 41.7499 23.0002ZM6.89575 32.5564C5.227 29.7543 4.24992 26.4918 4.24992 23.0002C4.24992 19.5085 5.227 16.246 6.89575 13.4439L11.5187 18.0668C10.8645 19.5814 10.4999 21.2481 10.4999 23.0002C10.4999 24.7522 10.8645 26.4189 11.5187 27.9335L6.89575 32.5564ZM14.6666 23.0002C14.6666 20.79 15.5446 18.6704 17.1074 17.1076C18.6702 15.5448 20.7898 14.6668 22.9999 14.6668C25.2101 14.6668 27.3297 15.5448 28.8925 17.1076C30.4553 18.6704 31.3333 20.79 31.3333 23.0002C31.3333 25.2103 30.4553 27.3299 28.8925 28.8927C27.3297 30.4555 25.2101 31.3335 22.9999 31.3335C20.7898 31.3335 18.6702 30.4555 17.1074 28.8927C15.5446 27.3299 14.6666 25.2103 14.6666 23.0002ZM32.5562 6.89808L27.9333 11.521C26.3762 10.8461 24.697 10.4986 22.9999 10.5002C21.2478 10.5002 19.5812 10.8647 18.0666 11.5189L13.4437 6.89808C16.3308 5.16693 19.6336 4.25176 22.9999 4.25016C26.4937 4.25016 29.752 5.22725 32.5562 6.89808ZM13.4437 39.1022L18.0666 34.4793C19.6236 35.1543 21.3029 35.5018 22.9999 35.5002C24.752 35.5002 26.4187 35.1356 27.9333 34.4814L32.5562 39.1022C29.6691 40.8334 26.3663 41.7486 22.9999 41.7502C19.6336 41.7486 16.3308 40.8334 13.4437 39.1022Z" fill="black"/>
</svg>
