<svg width="50" height="50" viewBox="0 0 50 50" fill="none" xmlns="http://www.w3.org/2000/svg">
<path d="M16.6667 22.9167C18.1089 22.9167 19.5186 22.4891 20.7177 21.6878C21.9169 20.8866 22.8514 19.7478 23.4033 18.4154C23.9552 17.0831 24.0996 15.617 23.8183 14.2025C23.5369 12.7881 22.8425 11.4888 21.8227 10.4691C20.8029 9.4493 19.5037 8.75484 18.0892 8.47349C16.6748 8.19214 15.2087 8.33654 13.8763 8.88843C12.5439 9.44031 11.4051 10.3749 10.6039 11.574C9.80269 12.7731 9.37504 14.1829 9.37504 15.625C9.37504 17.5589 10.1433 19.4136 11.5107 20.781C12.8782 22.1485 14.7328 22.9167 16.6667 22.9167ZM16.6667 12.5C17.2848 12.5 17.889 12.6833 18.4029 13.0267C18.9168 13.3701 19.3173 13.8581 19.5538 14.4292C19.7904 15.0002 19.8522 15.6285 19.7317 16.2347C19.6111 16.8409 19.3135 17.3977 18.8764 17.8348C18.4394 18.2718 17.8826 18.5694 17.2764 18.69C16.6702 18.8106 16.0418 18.7487 15.4708 18.5122C14.8998 18.2756 14.4117 17.8751 14.0684 17.3612C13.725 16.8473 13.5417 16.2431 13.5417 15.625C13.5417 14.7962 13.8709 14.0014 14.457 13.4153C15.0431 12.8293 15.8379 12.5 16.6667 12.5ZM33.3334 29.1667C31.8912 29.1667 30.4814 29.5944 29.2823 30.3956C28.0832 31.1968 27.1486 32.3356 26.5968 33.668C26.0449 35.0004 25.9005 36.4665 26.1818 37.8809C26.4632 39.2954 27.1576 40.5946 28.1774 41.6144C29.1971 42.6341 30.4964 43.3286 31.9108 43.6099C33.3253 43.8913 34.7914 43.7469 36.1238 43.195C37.4562 42.6431 38.595 41.7085 39.3962 40.5094C40.1974 39.3103 40.625 37.9005 40.625 36.4584C40.625 34.5245 39.8568 32.6698 38.4894 31.3024C37.1219 29.9349 35.2672 29.1667 33.3334 29.1667ZM33.3334 39.5834C32.7153 39.5834 32.1111 39.4001 31.5972 39.0567C31.0833 38.7133 30.6828 38.2253 30.4463 37.6543C30.2097 37.0832 30.1478 36.4549 30.2684 35.8487C30.389 35.2425 30.6866 34.6857 31.1237 34.2487C31.5607 33.8116 32.1175 33.514 32.7237 33.3934C33.3299 33.2728 33.9582 33.3347 34.5293 33.5713C35.1003 33.8078 35.5883 34.2083 35.9317 34.7222C36.2751 35.2361 36.4584 35.8403 36.4584 36.4584C36.4584 37.2872 36.1291 38.082 35.5431 38.6681C34.957 39.2541 34.1622 39.5834 33.3334 39.5834ZM41.125 8.87505C40.9528 8.70245 40.7482 8.56552 40.523 8.47209C40.2978 8.37866 40.0564 8.33057 39.8125 8.33057C39.5687 8.33057 39.3273 8.37866 39.1021 8.47209C38.8768 8.56552 38.6723 8.70245 38.5 8.87505L8.87504 38.5C8.53129 38.8509 8.3371 39.3214 8.33338 39.8125C8.33282 40.1797 8.44126 40.5387 8.64496 40.8441C8.84866 41.1496 9.13845 41.3877 9.4776 41.5282C9.81675 41.6688 10.19 41.7055 10.55 41.6337C10.9101 41.562 11.2407 41.3849 11.5 41.125L41.125 11.5C41.2976 11.3278 41.4346 11.1232 41.528 10.898C41.6214 10.6728 41.6695 10.4314 41.6695 10.1875C41.6695 9.94372 41.6214 9.70229 41.528 9.47707C41.4346 9.25185 41.2976 9.04727 41.125 8.87505Z" fill="black"/>
</svg>
