<svg width="50" height="50" viewBox="0 0 50 50" fill="none" xmlns="http://www.w3.org/2000/svg">
<path d="M4.20313 22.5625C3.85934 22.5542 3.51736 22.6147 3.19731 22.7405C2.87727 22.8663 2.58564 23.0549 2.33958 23.2952C2.09352 23.5354 1.89801 23.8224 1.76455 24.1394C1.6311 24.4563 1.5624 24.7967 1.5625 25.1406C1.5625 26.9433 2.2786 28.6721 3.55326 29.9467C4.82792 31.2214 6.55673 31.9375 8.35938 31.9375H13.5781C15.3699 31.921 17.0827 31.1977 18.3439 29.9248C19.6051 28.6519 20.3126 26.9325 20.3125 25.1406C20.3125 24.4569 20.0409 23.8011 19.5574 23.3176C19.0739 22.8341 18.4181 22.5625 17.7344 22.5625H12.5V10.1562H23.4375V36.7188H12.5C11.2568 36.7188 10.0645 37.2126 9.18544 38.0917C8.30636 38.9708 7.8125 40.163 7.8125 41.4062C7.8125 42.6495 8.30636 43.8417 9.18544 44.7208C10.0645 45.5999 11.2568 46.0938 12.5 46.0938H37.5C38.7432 46.0938 39.9355 45.5999 40.8146 44.7208C41.6936 43.8417 42.1875 42.6495 42.1875 41.4062C42.1875 40.163 41.6936 38.9708 40.8146 38.0917C39.9355 37.2126 38.7432 36.7188 37.5 36.7188H26.5625V10.1562H37.5V22.6562H32.2344C31.5546 22.6685 30.9069 22.9472 30.4305 23.4323C29.9542 23.9174 29.6874 24.5701 29.6875 25.25C29.6916 27.0472 30.4074 28.7697 31.6782 30.0405C32.9491 31.3113 34.6715 32.0271 36.4688 32.0312H41.6562C43.4535 32.0271 45.1759 31.3113 46.4468 30.0405C47.7176 28.7697 48.4334 27.0472 48.4375 25.25C48.4375 24.5621 48.1642 23.9024 47.6778 23.4159C47.1914 22.9295 46.5317 22.6562 45.8438 22.6562H40.625V10.1562H42.1875C42.6019 10.1562 42.9993 9.99163 43.2924 9.6986C43.5854 9.40558 43.75 9.00815 43.75 8.59375C43.75 8.17935 43.5854 7.78192 43.2924 7.4889C42.9993 7.19587 42.6019 7.03125 42.1875 7.03125H26.5625V5.46875C26.5625 5.05435 26.3979 4.65692 26.1049 4.3639C25.8118 4.07087 25.4144 3.90625 25 3.90625C24.5856 3.90625 24.1882 4.07087 23.8951 4.3639C23.6021 4.65692 23.4375 5.05435 23.4375 5.46875V7.03125H7.8125C7.3981 7.03125 7.00067 7.19587 6.70765 7.4889C6.41462 7.78192 6.25 8.17935 6.25 8.59375C6.25 9.00815 6.41462 9.40558 6.70765 9.6986C7.00067 9.99163 7.3981 10.1562 7.8125 10.1562H9.375V22.5625H4.20313ZM39.0625 41.4062C39.0625 41.8207 38.8979 42.2181 38.6049 42.5111C38.3118 42.8041 37.9144 42.9688 37.5 42.9688H12.5C12.0856 42.9688 11.6882 42.8041 11.3951 42.5111C11.1021 42.2181 10.9375 41.8207 10.9375 41.4062C10.9375 40.9918 11.1021 40.5944 11.3951 40.3014C11.6882 40.0084 12.0856 39.8438 12.5 39.8438H37.5C37.9144 39.8438 38.3118 40.0084 38.6049 40.3014C38.8979 40.5944 39.0625 40.9918 39.0625 41.4062ZM41.5625 28.9062H36.4219C35.5447 28.9016 34.6979 28.5845 34.0335 28.0118C33.3691 27.439 32.9307 26.6482 32.7969 25.7812H45.2969C45.1677 26.6616 44.722 27.4647 44.0432 28.04C43.3643 28.6153 42.499 28.9233 41.6094 28.9062H41.5625ZM13.5781 28.8125H8.40625C7.5273 28.8143 6.67711 28.4994 6.01139 27.9255C5.34566 27.3516 4.90896 26.5571 4.78125 25.6875H17.2813C17.1455 26.5678 16.6957 27.3692 16.015 27.9436C15.3343 28.518 14.4687 28.8267 13.5781 28.8125Z" fill="black"/>
</svg>
