<svg width="50" height="50" viewBox="0 0 50 50" fill="none" xmlns="http://www.w3.org/2000/svg">
<path d="M25 39.5835C25.412 39.5835 25.8148 39.4613 26.1574 39.2324C26.5 39.0035 26.767 38.6781 26.9247 38.2974C27.0824 37.9167 27.1236 37.4978 27.0433 37.0937C26.9629 36.6896 26.7645 36.3184 26.4731 36.027C26.1817 35.7357 25.8105 35.5372 25.4064 35.4569C25.0023 35.3765 24.5834 35.4177 24.2027 35.5754C23.822 35.7331 23.4967 36.0001 23.2677 36.3427C23.0388 36.6853 22.9166 37.0881 22.9166 37.5002C22.9166 38.0527 23.1361 38.5826 23.5268 38.9733C23.9175 39.364 24.4474 39.5835 25 39.5835ZM35.4166 39.5835C35.8287 39.5835 36.2315 39.4613 36.5741 39.2324C36.9167 39.0035 37.1837 38.6781 37.3414 38.2974C37.4991 37.9167 37.5403 37.4978 37.4599 37.0937C37.3795 36.6896 37.1811 36.3184 36.8898 36.027C36.5984 35.7357 36.2272 35.5372 35.8231 35.4569C35.4189 35.3765 35.0001 35.4177 34.6194 35.5754C34.2387 35.7331 33.9133 36.0001 33.6844 36.3427C33.4555 36.6853 33.3333 37.0881 33.3333 37.5002C33.3333 38.0527 33.5528 38.5826 33.9435 38.9733C34.3342 39.364 34.8641 39.5835 35.4166 39.5835ZM35.4166 31.2502C35.8287 31.2502 36.2315 31.128 36.5741 30.8991C36.9167 30.6701 37.1837 30.3448 37.3414 29.9641C37.4991 29.5834 37.5403 29.1645 37.4599 28.7604C37.3795 28.3563 37.1811 27.985 36.8898 27.6937C36.5984 27.4023 36.2272 27.2039 35.8231 27.1235C35.4189 27.0431 35.0001 27.0844 34.6194 27.2421C34.2387 27.3998 33.9133 27.6668 33.6844 28.0094C33.4555 28.352 33.3333 28.7548 33.3333 29.1668C33.3333 29.7194 33.5528 30.2493 33.9435 30.64C34.3342 31.0307 34.8641 31.2502 35.4166 31.2502ZM25 31.2502C25.412 31.2502 25.8148 31.128 26.1574 30.8991C26.5 30.6701 26.767 30.3448 26.9247 29.9641C27.0824 29.5834 27.1236 29.1645 27.0433 28.7604C26.9629 28.3563 26.7645 27.985 26.4731 27.6937C26.1817 27.4023 25.8105 27.2039 25.4064 27.1235C25.0023 27.0431 24.5834 27.0844 24.2027 27.2421C23.822 27.3998 23.4967 27.6668 23.2677 28.0094C23.0388 28.352 22.9166 28.7548 22.9166 29.1668C22.9166 29.7194 23.1361 30.2493 23.5268 30.64C23.9175 31.0307 24.4474 31.2502 25 31.2502ZM39.5833 6.25016H37.5V4.16683C37.5 3.61429 37.2805 3.08439 36.8898 2.69369C36.4991 2.30299 35.9692 2.0835 35.4166 2.0835C34.8641 2.0835 34.3342 2.30299 33.9435 2.69369C33.5528 3.08439 33.3333 3.61429 33.3333 4.16683V6.25016H16.6666V4.16683C16.6666 3.61429 16.4471 3.08439 16.0564 2.69369C15.6657 2.30299 15.1358 2.0835 14.5833 2.0835C14.0308 2.0835 13.5009 2.30299 13.1102 2.69369C12.7195 3.08439 12.5 3.61429 12.5 4.16683V6.25016H10.4166C8.75902 6.25016 7.16931 6.90864 5.99721 8.08074C4.82511 9.25285 4.16663 10.8426 4.16663 12.5002V41.6668C4.16663 43.3244 4.82511 44.9141 5.99721 46.0862C7.16931 47.2583 8.75902 47.9168 10.4166 47.9168H39.5833C41.2409 47.9168 42.8306 47.2583 44.0027 46.0862C45.1748 44.9141 45.8333 43.3244 45.8333 41.6668V12.5002C45.8333 10.8426 45.1748 9.25285 44.0027 8.08074C42.8306 6.90864 41.2409 6.25016 39.5833 6.25016ZM41.6666 41.6668C41.6666 42.2194 41.4471 42.7493 41.0564 43.14C40.6657 43.5307 40.1358 43.7502 39.5833 43.7502H10.4166C9.86409 43.7502 9.33419 43.5307 8.94349 43.14C8.55279 42.7493 8.33329 42.2194 8.33329 41.6668V22.9168H41.6666V41.6668ZM41.6666 18.7502H8.33329V12.5002C8.33329 11.9476 8.55279 11.4177 8.94349 11.027C9.33419 10.6363 9.86409 10.4168 10.4166 10.4168H12.5V12.5002C12.5 13.0527 12.7195 13.5826 13.1102 13.9733C13.5009 14.364 14.0308 14.5835 14.5833 14.5835C15.1358 14.5835 15.6657 14.364 16.0564 13.9733C16.4471 13.5826 16.6666 13.0527 16.6666 12.5002V10.4168H33.3333V12.5002C33.3333 13.0527 33.5528 13.5826 33.9435 13.9733C34.3342 14.364 34.8641 14.5835 35.4166 14.5835C35.9692 14.5835 36.4991 14.364 36.8898 13.9733C37.2805 13.5826 37.5 13.0527 37.5 12.5002V10.4168H39.5833C40.1358 10.4168 40.6657 10.6363 41.0564 11.027C41.4471 11.4177 41.6666 11.9476 41.6666 12.5002V18.7502ZM14.5833 31.2502C14.9953 31.2502 15.3981 31.128 15.7407 30.8991C16.0833 30.6701 16.3504 30.3448 16.508 29.9641C16.6657 29.5834 16.707 29.1645 16.6266 28.7604C16.5462 28.3563 16.3478 27.985 16.0564 27.6937C15.7651 27.4023 15.3939 27.2039 14.9897 27.1235C14.5856 27.0431 14.1667 27.0844 13.786 27.2421C13.4054 27.3998 13.08 27.6668 12.8511 28.0094C12.6221 28.352 12.5 28.7548 12.5 29.1668C12.5 29.7194 12.7195 30.2493 13.1102 30.64C13.5009 31.0307 14.0308 31.2502 14.5833 31.2502ZM14.5833 39.5835C14.9953 39.5835 15.3981 39.4613 15.7407 39.2324C16.0833 39.0035 16.3504 38.6781 16.508 38.2974C16.6657 37.9167 16.707 37.4978 16.6266 37.0937C16.5462 36.6896 16.3478 36.3184 16.0564 36.027C15.7651 35.7357 15.3939 35.5372 14.9897 35.4569C14.5856 35.3765 14.1667 35.4177 13.786 35.5754C13.4054 35.7331 13.08 36.0001 12.8511 36.3427C12.6221 36.6853 12.5 37.0881 12.5 37.5002C12.5 38.0527 12.7195 38.5826 13.1102 38.9733C13.5009 39.364 14.0308 39.5835 14.5833 39.5835Z" fill="black"/>
</svg>
