<svg width="50" height="50" viewBox="0 0 50 50" fill="none" xmlns="http://www.w3.org/2000/svg">
<path d="M39.5834 4.1665H10.4167C8.75915 4.1665 7.16943 4.82498 5.99733 5.99709C4.82523 7.16919 4.16675 8.7589 4.16675 10.4165V12.854C4.16645 13.7143 4.34376 14.5654 4.68758 15.354V15.479C4.98191 16.1477 5.39882 16.7554 5.91675 17.2707L18.7501 30.0207V43.7498C18.7494 44.1039 18.8389 44.4523 19.0102 44.7621C19.1816 45.072 19.429 45.333 19.7292 45.5207C20.0608 45.7261 20.4434 45.8344 20.8334 45.8332C21.1595 45.8312 21.4807 45.7527 21.7709 45.604L30.1042 41.4373C30.4478 41.2642 30.7367 40.9993 30.939 40.6721C31.1412 40.3448 31.2489 39.9679 31.2501 39.5832V30.0207L44.0001 17.2707C44.518 16.7554 44.9349 16.1477 45.2292 15.479V15.354C45.6018 14.5716 45.8075 13.7202 45.8334 12.854V10.4165C45.8334 8.7589 45.1749 7.16919 44.0028 5.99709C42.8307 4.82498 41.241 4.1665 39.5834 4.1665ZM27.6876 27.6873C27.4945 27.882 27.3417 28.1129 27.2381 28.3667C27.1344 28.6205 27.0818 28.8923 27.0834 29.1665V38.2915L22.9167 40.3748V29.1665C22.9183 28.8923 22.8658 28.6205 22.7621 28.3667C22.6584 28.1129 22.5057 27.882 22.3126 27.6873L11.2709 16.6665H38.7293L27.6876 27.6873ZM41.6668 12.4998H8.33342V10.4165C8.33342 9.86397 8.55291 9.33407 8.94361 8.94337C9.33431 8.55266 9.86421 8.33317 10.4167 8.33317H39.5834C40.136 8.33317 40.6659 8.55266 41.0566 8.94337C41.4473 9.33407 41.6668 9.86397 41.6668 10.4165V12.4998Z" fill="black"/>
</svg>
