<svg width="50" height="50" viewBox="0 0 50 50" fill="none" xmlns="http://www.w3.org/2000/svg">
<path d="M41.6484 4.1709C41.3747 4.17074 41.1037 4.22452 40.8509 4.32917C40.5981 4.43381 40.3684 4.58726 40.1749 4.78074C39.9814 4.97423 39.8279 5.20396 39.7233 5.45679C39.6186 5.70962 39.5649 5.9806 39.565 6.25423V7.58073C37.8079 9.75928 35.5872 11.5186 33.0645 12.7307C30.5417 13.9428 27.7805 14.5772 24.9817 14.5876H12.4817C10.8246 14.5894 9.23598 15.2484 8.06427 16.4201C6.89256 17.5919 6.2335 19.1805 6.23169 20.8376V25.0042C6.2335 26.6613 6.89256 28.2499 8.06427 29.4217C9.23598 30.5934 10.8246 31.2524 12.4817 31.2542H13.4896L8.4839 42.9342C8.34787 43.251 8.29264 43.5966 8.32317 43.9401C8.35371 44.2835 8.46905 44.6139 8.65884 44.9017C8.84863 45.1896 9.10693 45.4257 9.41055 45.5891C9.71416 45.7524 10.0536 45.8378 10.3984 45.8376H18.7317C19.1395 45.8378 19.5384 45.7182 19.8788 45.4936C20.2192 45.2689 20.486 44.9492 20.6462 44.5742L26.3206 31.3334C28.8845 31.5216 31.3825 32.2335 33.6605 33.4249C35.9385 34.6164 37.948 36.2621 39.565 38.2606V39.5876C39.565 40.1401 39.7845 40.67 40.1752 41.0607C40.5659 41.4514 41.0958 41.6709 41.6484 41.6709C42.2009 41.6709 42.7308 41.4514 43.1215 41.0607C43.5122 40.67 43.7317 40.1401 43.7317 39.5876V6.25423C43.7318 5.9806 43.6781 5.70962 43.5734 5.45679C43.4688 5.20395 43.3153 4.97423 43.1218 4.78074C42.9284 4.58725 42.6986 4.4338 42.4458 4.32916C42.193 4.22452 41.922 4.17074 41.6484 4.1709ZM12.4817 27.0876C11.9293 27.0872 11.3996 26.8676 11.009 26.477C10.6183 26.0863 10.3987 25.5567 10.3984 25.0042V20.8376C10.3987 20.2851 10.6183 19.7555 11.009 19.3648C11.3996 18.9742 11.9293 18.7546 12.4817 18.7542H14.565V27.0876H12.4817ZM17.3584 41.6709H13.5579L18.0216 31.2542H21.8221L17.3584 41.6709ZM39.565 32.3413C35.4572 28.9572 30.3039 27.1006 24.9817 27.0875H18.7317V18.7541H24.9817C30.304 18.7405 35.4573 16.8836 39.565 13.4993V32.3413Z" fill="black"/>
</svg>
