<svg width="50" height="50" viewBox="0 0 50 50" fill="none" xmlns="http://www.w3.org/2000/svg">
<path d="M19.2391 29.511C25.5978 29.511 30.7609 24.3479 30.7609 18.0436C30.7609 11.6849 25.5978 6.57617 19.2391 6.57617C12.8804 6.57617 7.71739 11.7392 7.71739 18.0436C7.77174 24.3479 12.9348 29.511 19.2391 29.511ZM19.2391 10.8696C23.2065 10.8696 26.413 14.0762 26.413 17.9892C26.413 21.9023 23.2065 25.1088 19.2391 25.1088C15.2717 25.1088 12.0652 21.9023 12.0652 17.9892C12.1196 14.0762 15.3261 10.8696 19.2391 10.8696ZM24.4565 30.5436C23.8587 30.3805 23.2065 30.4349 22.663 30.761L19.2391 32.8262L15.8152 30.761C15.2717 30.4349 14.6196 30.3805 14.0217 30.5436C10.7065 31.6305 0 35.4892 0 41.3044C0 42.5001 0.978261 43.4783 2.17391 43.4783H36.3043C37.5 43.4783 38.4783 42.5001 38.4783 41.3044C38.4783 35.4892 27.7717 31.6305 24.4565 30.5436ZM6.08696 39.1305C7.93478 37.7175 11.0326 36.1957 14.4022 35.0001L18.0978 37.2283C18.8043 37.6631 19.6739 37.6631 20.3261 37.2283L24.0217 35.0001C27.3913 36.1414 30.4891 37.7175 32.337 39.1305H6.08696ZM49.4565 37.5001C49.4565 38.424 48.75 39.1305 47.8261 39.1305H40.5435C39.6196 39.1305 38.913 38.424 38.913 37.5001C38.913 36.5762 39.6196 35.8696 40.5435 35.8696H45.3804C44.5652 34.7827 43.2609 33.9131 41.6304 33.0436C40.8152 32.6088 40.5435 31.6305 40.9783 30.8696C41.413 30.0544 42.3913 29.7827 43.2065 30.2175C45.5435 31.4675 49.4565 34.1305 49.4565 37.5001ZM40.3261 23.1523C40.3261 20.761 38.3696 18.8588 36.0326 18.8588C35.4348 18.8588 34.8913 18.9675 34.3478 19.1849C33.5326 19.511 32.5543 19.1305 32.2283 18.3153C31.9022 17.5001 32.2826 16.5218 33.0978 16.1957C34.0217 15.8153 35 15.5979 36.0326 15.5979C40.2174 15.5979 43.587 18.9675 43.587 23.1523C43.587 27.337 40.163 30.7066 36.0326 30.7066C33.8587 30.7066 31.7935 29.7827 30.3804 28.1523C29.7826 27.5001 29.837 26.4675 30.5435 25.8696C31.1957 25.2718 32.2283 25.3262 32.8261 26.0327C33.6413 26.9566 34.837 27.5001 36.087 27.5001C38.3696 27.4457 40.3261 25.4892 40.3261 23.1523Z" fill="black"/>
</svg>
