<svg width="50" height="50" viewBox="0 0 50 50" fill="none" xmlns="http://www.w3.org/2000/svg">
<path d="M25 1.25C11.883 1.25 1.25 11.9115 1.25 25.063C2.501 56.6505 47.5035 56.6415 48.75 25.063C48.75 11.9115 38.1165 1.25 25 1.25Z" fill="black"/>
<path d="M39.1424 31.7785C39.1169 33.0315 38.1129 33.4545 37.1399 32.761C35.3254 31.491 33.5234 30.2035 31.7144 28.9265C31.7189 29.5175 31.7109 30.9095 31.7139 31.515C31.7134 32.638 31.1554 33.1845 30.0089 33.185L20.2409 33.186C18.5859 33.1865 16.9314 33.187 15.2764 33.185C12.1479 33.1815 10.0454 31.132 10.0444 28.0845V18.482C10.0444 17.343 10.5849 16.812 11.7444 16.812C15.7199 16.8875 22.6659 16.8205 26.5634 16.8135C29.3259 16.8165 31.3244 18.5345 31.6584 21.0735C33.4864 19.7835 35.3069 18.483 37.1399 17.1995C37.9854 16.586 39.0984 16.783 39.1424 18.1825C39.1544 22.5755 39.1689 27.377 39.1424 31.7785Z" fill="white"/>
</svg>
