<svg width="78" height="23" viewBox="0 0 78 23" fill="none" xmlns="http://www.w3.org/2000/svg"><path fill-rule="evenodd" clip-rule="evenodd" d="M73.807 11.322c1.161 3.016 2.58 6.78 4.16 11.062a.556.556 0 0 1 .033.227.373.373 0 0 1-.226.162c-.548.097-1.935.26-3.193-.617a3.277 3.277 0 0 1-1.16-1.232c-.02-.019-.027-.027-.03-.036-.003-.007-.003-.015-.003-.03l-5.999-16.9h-.967l-3.838 9.505h2.16a1.67 1.67 0 0 1 1.678 1.686v.65a1.67 1.67 0 0 1-1.677 1.686h-3.71l-1.386 3.406c-.032 0-.032.033-.032.033a3.653 3.653 0 0 1-1.194 1.33c-.774.519-1.58.649-2.225.649-.345 0-.625-.044-.839-.078a9.907 9.907 0 0 0-.129-.02.242.242 0 0 1-.225-.162c-.033-.065-.033-.162 0-.26L62.777 3.99a3.53 3.53 0 0 0-.29-.032 6.037 6.037 0 0 1-1.87-.487 4.488 4.488 0 0 1-1.42-1.07A5.598 5.598 0 0 1 58.004.42c-.032-.097-.032-.226.032-.291.065-.065.162-.13.258-.13h9.514c.29.097.549.195.807.357 1.485.871 2.05 2.429 2.293 3.098l.029.081v.032c.387 1.103 1.419 3.893 2.87 7.754ZM22.98.032c.129 0 .226.065.29.162.033.13.033.26-.064.26-.516.778-1.097 1.492-1.742 2.043l-.079.06c-.308.241-1.448 1.133-2.662 1.303-.323.065-.549.065-.71.065-1.935.065-4.644.065-7.385.065H.37a.293.293 0 0 1-.258-.13C.048 3.795.048 3.665.08 3.568c.323-.746.774-1.427 1.387-1.979A5.774 5.774 0 0 1 3.112.52C3.789.259 4.499.064 5.208.032H22.98Zm-5.515 9.44c.903.033 2.613.325 4 1.655 1.838 1.752 1.838 4.152 1.838 5.06v.065c0 3.99-2.484 6.618-6.354 6.65-1.741.033-3.548.033-5.386.033s-3.773 0-5.773-.032c-.677 0-1.58-.098-2.612-.552-1.258-.584-2.322-1.622-3.129-3.05a.296.296 0 0 1 0-.324.338.338 0 0 1 .29-.162h.936c.824 0 2.116.003 3.623.006h.001c3.92.007 9.296.018 11.695-.006 1.032-.032 1.774-.292 2.226-.778.42-.487.613-1.2.548-2.141-.129-1.687-.968-2.401-2.774-2.433-1.87-.033-3.773-.033-5.611-.033H6.208c-1.16-.032-2.193-.065-3.321-.649C1.725 12.197.79 11.257.08 9.96a.296.296 0 0 1 0-.324.338.338 0 0 1 .29-.162h17.093ZM50 3.115l-.026-.044c-.12-.206-.435-.741-.942-1.221C47.29.129 44.807.032 43.807.065H39L27.874.032c-.096 0-.225.065-.258.163-.064.097-.064.194-.032.324.323.649 1.226 2.238 2.87 2.984 1.13.52 2.323.552 2.323.552H44.16c.839.032 1.678.324 2.032.681.516.552.58 1.33.58 2.011.033 2.952.033 6.034 0 9.408v.097c0 .617 0 1.46-.58 2.012-.258.26-.58.421-1 .519a2.947 2.947 0 0 1-.612.064H34.107c-.172.003-.772.01-1.17-.421a1.095 1.095 0 0 1-.257-.552v-6.196c.032-.194.064-1.135-.613-1.719-.484-.422-1.096-.422-1.483-.422-.42 0-.968 0-1.452.422-.645.584-.613 1.492-.58 1.72v9.018c.032.713.226 1.297.645 1.687.613.583 1.451.616 1.774.616h8.062c1.549 0 3.226 0 5.032-.033 2.128 0 3.773-.616 4.837-1.751.387-.422.742-.974 1.065-1.622a7.295 7.295 0 0 0 .742-3.407V6.974c.064-1.686-.162-2.887-.71-3.86Z" fill="#000"/></svg>