<svg width="24" height="37" viewBox="0 0 24 37" fill="none" xmlns="http://www.w3.org/2000/svg">
<path fill-rule="evenodd" clip-rule="evenodd" d="M22.6286 25.8V11.2C22.6286 5.72134 17.87 1.28 12 1.28C6.13 1.28 1.37143 5.72134 1.37143 11.2V25.8C1.37143 31.2787 6.13 35.72 12 35.72C17.87 35.72 22.6286 31.2787 22.6286 25.8ZM12 0C5.37258 0 0 5.01441 0 11.2V25.8C0 31.9856 5.37258 37 12 37C18.6274 37 24 31.9856 24 25.8V11.2C24 5.01441 18.6274 0 12 0Z" fill="#899198"/>
<path d="M10.2857 9.28C10.2857 8.39634 11.0532 7.68 12 7.68C12.9468 7.68 13.7143 8.39634 13.7143 9.28V12.48C13.7143 13.3637 12.9468 14.08 12 14.08C11.0532 14.08 10.2857 13.3637 10.2857 12.48V9.28Z" fill="#899198"/>
</svg>
