<svg width="22" height="16" viewBox="0 0 22 16" fill="none" xmlns="http://www.w3.org/2000/svg">
<path d="M11 0.500977C6 0.500977 1.73 3.61098 0 8.00098C1.73 12.391 6 15.501 11 15.501C16 15.501 20.27 12.391 22 8.00098C20.27 3.61098 16 0.500977 11 0.500977ZM11 13.001C8.24 13.001 6 10.761 6 8.00098C6 5.24098 8.24 3.00098 11 3.00098C13.76 3.00098 16 5.24098 16 8.00098C16 10.761 13.76 13.001 11 13.001ZM11 5.00098C9.34 5.00098 8 6.34098 8 8.00098C8 9.66098 9.34 11.001 11 11.001C12.66 11.001 14 9.66098 14 8.00098C14 6.34098 12.66 5.00098 11 5.00098Z" fill="#B62519"/>
</svg>
