<svg width="50" height="50" viewBox="0 0 50 50" fill="none" xmlns="http://www.w3.org/2000/svg">
<path fill-rule="evenodd" clip-rule="evenodd" d="M11.2111 8.39674C7.72028 10.2102 6.44531 12.2568 6.44531 13.8391C6.44531 15.4213 7.72028 17.468 11.2111 19.2814C14.5912 21.0373 19.4608 22.2096 25 22.2096C30.5392 22.2096 35.4088 21.0373 38.7889 19.2814C42.2797 17.468 43.5547 15.4213 43.5547 13.8391C43.5547 12.2568 42.2797 10.2102 38.7889 8.39674C35.4088 6.64087 30.5392 5.46854 25 5.46854C19.4608 5.46854 14.5912 6.64087 11.2111 8.39674ZM8.40537 3.49777C12.8011 1.21427 18.6737 -0.111816 25 -0.111816C31.3263 -0.111816 37.1989 1.21427 41.5946 3.49777C45.8796 5.72373 49.4141 9.25743 49.4141 13.8391C49.4141 18.4207 45.8796 21.9544 41.5946 24.1804C37.1989 26.4639 31.3263 27.79 25 27.79C18.6737 27.79 12.8011 26.4639 8.40537 24.1804C4.12041 21.9544 0.585938 18.4207 0.585938 13.8391C0.585938 9.25743 4.12041 5.72373 8.40537 3.49777Z" fill="black"/>
<path fill-rule="evenodd" clip-rule="evenodd" d="M3.51562 11.0489C5.13365 11.0489 6.44531 12.2981 6.44531 13.8391V24.9998C6.44531 26.582 7.72028 28.6287 11.2111 30.4421C14.5912 32.198 19.4608 33.3703 25 33.3703C30.5392 33.3703 35.4088 32.198 38.7889 30.4421C42.2797 28.6287 43.5547 26.582 43.5547 24.9998V13.8391C43.5547 12.2981 44.8664 11.0489 46.4844 11.0489C48.1024 11.0489 49.4141 12.2981 49.4141 13.8391V24.9998C49.4141 29.5814 45.8796 33.1151 41.5946 35.3411C37.1989 37.6246 31.3263 38.9507 25 38.9507C18.6737 38.9507 12.8011 37.6246 8.40537 35.3411C4.12041 33.1151 0.585938 29.5814 0.585938 24.9998V13.8391C0.585938 12.2981 1.8976 11.0489 3.51562 11.0489Z" fill="black"/>
<path fill-rule="evenodd" clip-rule="evenodd" d="M3.51562 22.2096C5.13365 22.2096 6.44531 23.4588 6.44531 24.9998V36.1605C6.44531 37.7427 7.72028 39.7894 11.2111 41.6028C14.5912 43.3587 19.4608 44.531 25 44.531C30.5392 44.531 35.4088 43.3587 38.7889 41.6028C42.2797 39.7894 43.5547 37.7427 43.5547 36.1605V24.9998C43.5547 23.4588 44.8664 22.2096 46.4844 22.2096C48.1024 22.2096 49.4141 23.4588 49.4141 24.9998V36.1605C49.4141 40.7422 45.8796 44.2759 41.5946 46.5018C37.1989 48.7853 31.3263 50.1114 25 50.1114C18.6737 50.1114 12.8011 48.7853 8.40537 46.5018C4.12041 44.2759 0.585938 40.7422 0.585938 36.1605V24.9998C0.585938 23.4588 1.8976 22.2096 3.51562 22.2096Z" fill="black"/>
</svg>
