<svg width="50" height="50" viewBox="0 0 50 50" fill="none" xmlns="http://www.w3.org/2000/svg">
<path d="M38.2582 20.5806L25 33.8388L16.1611 25L29.4194 11.7417C34.4397 6.72138 39.4601 6.77035 41.6011 7.08979C41.9308 7.13893 42.2359 7.29267 42.4716 7.52835C42.7073 7.76403 42.861 8.06918 42.9102 8.39883C43.2296 10.5399 43.2786 15.5602 38.2582 20.5806Z" stroke="black" stroke-width="4" stroke-linecap="round" stroke-linejoin="round"/>
<path d="M17.6874 37.5747C14.7464 42.6779 7.32215 42.6779 7.32215 42.6779C7.32215 42.6779 7.32215 35.2537 12.4253 32.3126M36.0484 22.7905V35.4015C36.0484 35.6067 36.008 35.8099 35.9294 35.9995C35.8509 36.1891 35.7358 36.3613 35.5907 36.5064L29.274 42.8231C29.074 43.0231 28.8235 43.1651 28.5492 43.2339C28.2749 43.3027 27.987 43.2957 27.7163 43.2137C27.4457 43.1318 27.2023 42.9779 27.0122 42.7685C26.8221 42.5591 26.6924 42.302 26.637 42.0247L24.9998 33.839L36.0484 22.7905ZM27.2095 13.9517H14.5985C14.3933 13.9517 14.1901 13.9921 14.0005 14.0706C13.811 14.1491 13.6387 14.2642 13.4936 14.4093L7.17688 20.7261C6.97691 20.926 6.83495 21.1765 6.76616 21.4509C6.69737 21.7252 6.70433 22.013 6.78628 22.2837C6.86824 22.5544 7.02212 22.7977 7.23152 22.9878C7.44092 23.1779 7.69799 23.3076 7.97531 23.3631L16.161 25.0002L27.2095 13.9517Z" stroke="black" stroke-width="4" stroke-linecap="round" stroke-linejoin="round"/>
</svg>
