<svg width="50" height="50" viewBox="0 0 50 50" fill="none" xmlns="http://www.w3.org/2000/svg">
<path d="M32.7428 19.1712H17.2571C14.8256 19.0764 12.5253 18.0439 10.8385 16.2901C9.15167 14.5362 8.20947 12.1974 8.20947 9.76408C8.20947 7.33074 9.15167 4.99191 10.8385 3.23809C12.5253 1.48427 14.8256 0.451705 17.2571 0.356934H32.7428C35.1743 0.451705 37.4747 1.48427 39.1615 3.23809C40.8483 4.99191 41.7904 7.33074 41.7904 9.76408C41.7904 12.1974 40.8483 14.5362 39.1615 16.2901C37.4747 18.0439 35.1743 19.0764 32.7428 19.1712ZM17.2571 3.92836C15.7593 4.00249 14.3474 4.64968 13.3135 5.73596C12.2797 6.82224 11.7031 8.26446 11.7031 9.76408C11.7031 11.2637 12.2797 12.7059 13.3135 13.7922C14.3474 14.8785 15.7593 15.5257 17.2571 15.5998H32.7428C34.2406 15.5257 35.6525 14.8785 36.6864 13.7922C37.7203 12.7059 38.2969 11.2637 38.2969 9.76408C38.2969 8.26446 37.7203 6.82224 36.6864 5.73596C35.6525 4.64968 34.2406 4.00249 32.7428 3.92836H17.2571Z" fill="black"/>
<path d="M24.8857 34.4001H17.2572C14.7641 34.4001 12.3732 33.4097 10.6104 31.6469C8.84753 29.8841 7.85718 27.4931 7.85718 25.0001C7.85718 22.5071 8.84753 20.1161 10.6104 18.3533C12.3732 16.5905 14.7641 15.6001 17.2572 15.6001C17.7308 15.6001 18.185 15.7882 18.5199 16.1231C18.8548 16.458 19.0429 16.9122 19.0429 17.3858C19.0429 17.8594 18.8548 18.3136 18.5199 18.6485C18.185 18.9834 17.7308 19.1715 17.2572 19.1715C15.7113 19.1715 14.2288 19.7856 13.1358 20.8787C12.0427 21.9717 11.4286 23.4543 11.4286 25.0001C11.4286 26.5459 12.0427 28.0284 13.1358 29.1215C14.2288 30.2146 15.7113 30.8287 17.2572 30.8287H23.1V17.3858C23.1 16.9122 23.2882 16.458 23.6231 16.1231C23.9579 15.7882 24.4121 15.6001 24.8857 15.6001C25.3593 15.6001 25.8135 15.7882 26.1484 16.1231C26.4833 16.458 26.6715 16.9122 26.6715 17.3858V32.6144C26.6715 33.088 26.4833 33.5422 26.1484 33.8771C25.8135 34.212 25.3593 34.4001 24.8857 34.4001Z" fill="black"/>
<path d="M17.3715 49.6427C16.1053 49.6921 14.8422 49.4853 13.6578 49.0348C12.4734 48.5843 11.3922 47.8993 10.4789 47.0209C9.56557 46.1425 8.839 45.0887 8.3427 43.9228C7.84639 42.7569 7.59058 41.5027 7.59058 40.2356C7.59058 38.9684 7.84639 37.7143 8.3427 36.5483C8.839 35.3824 9.56557 34.3287 10.4789 33.4503C11.3922 32.5719 12.4734 31.8869 13.6578 31.4364C14.8422 30.9859 16.1053 30.7791 17.3715 30.8284C17.8451 30.8284 18.2993 31.0166 18.6342 31.3515C18.9691 31.6863 19.1572 32.1405 19.1572 32.6141C19.1572 33.0877 18.9691 33.542 18.6342 33.8768C18.2993 34.2117 17.8451 34.3999 17.3715 34.3999C16.2153 34.397 15.0843 34.7373 14.1215 35.3776C13.1588 36.0179 12.4077 36.9294 11.9633 37.9968C11.5188 39.0642 11.4011 40.2395 11.6249 41.3738C11.8487 42.5082 12.4041 43.5506 13.2207 44.3692C14.0372 45.1877 15.0783 45.7456 16.2121 45.9722C17.3459 46.1988 18.5214 46.084 19.5899 45.6422C20.6584 45.2004 21.5717 44.4515 22.2144 43.4903C22.857 42.5292 23.2001 41.3989 23.2001 40.2427V32.6141C23.2001 32.1405 23.3882 31.6863 23.7231 31.3515C24.058 31.0166 24.5122 30.8284 24.9858 30.8284C25.4594 30.8284 25.9136 31.0166 26.2485 31.3515C26.5834 31.6863 26.7715 32.1405 26.7715 32.6141V40.2427C26.7677 42.7346 25.7762 45.1233 24.0142 46.8853C22.2521 48.6474 19.8634 49.6389 17.3715 49.6427Z" fill="black"/>
<path d="M32.6143 34.6431C30.7297 34.6431 28.8874 34.0842 27.3205 33.0372C25.7535 31.9902 24.5322 30.5021 23.811 28.7609C23.0898 27.0198 22.9011 25.1039 23.2688 23.2556C23.6364 21.4072 24.544 19.7094 25.8766 18.3768C27.2091 17.0442 28.907 16.1367 30.7553 15.769C32.6037 15.4014 34.5196 15.5901 36.2607 16.3113C38.0018 17.0325 39.49 18.2538 40.537 19.8207C41.584 21.3877 42.1428 23.2299 42.1428 25.1145C42.1428 26.3658 41.8964 27.6049 41.4175 28.7609C40.9387 29.917 40.2368 30.9674 39.352 31.8522C38.4672 32.737 37.4168 33.4389 36.2607 33.9178C35.1046 34.3966 33.8656 34.6431 32.6143 34.6431ZM32.6143 19.1717C31.4354 19.1717 30.2831 19.5214 29.3032 20.1766C28.3232 20.8318 27.5597 21.7631 27.1092 22.8524C26.6588 23.9418 26.5416 25.1403 26.7727 26.2962C27.0037 27.4522 27.5725 28.5136 28.407 29.3462C29.2416 30.1787 30.3044 30.745 31.4609 30.9732C32.6174 31.2015 33.8156 31.0814 34.9039 30.6284C35.9922 30.1753 36.9215 29.4095 37.5744 28.428C38.2273 27.4465 38.5742 26.2933 38.5714 25.1145C38.5676 23.5371 37.9383 22.0255 36.8216 20.9114C35.7048 19.7973 34.1917 19.1717 32.6143 19.1717Z" fill="black"/>
<path d="M24.8857 19.1712C24.6512 19.1693 24.4194 19.1213 24.2035 19.0298C23.9875 18.9384 23.7917 18.8053 23.6272 18.6381C23.4627 18.471 23.3328 18.2731 23.2448 18.0557C23.1568 17.8383 23.1124 17.6057 23.1143 17.3712L23.2286 2.12836C23.2323 1.6597 23.4202 1.2113 23.7516 0.8799C24.083 0.548499 24.5314 0.360668 25 0.356934C25.2345 0.358802 25.4664 0.406844 25.6823 0.498315C25.8983 0.589786 26.0941 0.722895 26.2586 0.890042C26.423 1.05719 26.553 1.2551 26.641 1.47247C26.729 1.68985 26.7733 1.92243 26.7715 2.15693L26.6572 17.3998C26.6498 17.8673 26.4608 18.3136 26.1302 18.6442C25.7996 18.9749 25.3533 19.1639 24.8857 19.1712Z" fill="black"/>
</svg>
