<svg width="50" height="50" viewBox="0 0 50 50" fill="none" xmlns="http://www.w3.org/2000/svg">
<path d="M45.8337 15.0832C45.8353 14.809 45.7827 14.5372 45.6791 14.2834C45.5754 14.0296 45.4226 13.7987 45.2295 13.604L36.3962 4.77071C36.2015 4.57762 35.9707 4.42486 35.7168 4.32118C35.463 4.21751 35.1912 4.16495 34.917 4.16654C34.6429 4.16495 34.3711 4.21751 34.1172 4.32118C33.8634 4.42486 33.6325 4.57762 33.4379 4.77071L27.542 10.6665L4.77119 33.4374C4.57811 33.632 4.42535 33.8629 4.32167 34.1167C4.21799 34.3706 4.16544 34.6424 4.16703 34.9165V43.7499C4.16703 44.3024 4.38652 44.8323 4.77722 45.223C5.16792 45.6137 5.69783 45.8332 6.25036 45.8332H15.0837C15.3752 45.8491 15.6668 45.8035 15.9396 45.6994C16.2123 45.5953 16.4602 45.4351 16.667 45.229L39.3129 22.4582L45.2295 16.6665C45.4197 16.4646 45.5746 16.2322 45.6879 15.979C45.7079 15.813 45.7079 15.6451 45.6879 15.479C45.6976 15.3821 45.6976 15.2843 45.6879 15.1874L45.8337 15.0832ZM14.2295 41.6665H8.33369V35.7707L29.0212 15.0832L34.917 20.979L14.2295 41.6665ZM37.8545 18.0415L31.9587 12.1457L34.917 9.20821L40.792 15.0832L37.8545 18.0415Z" fill="black"/>
</svg>
