<svg width="50" height="50" viewBox="0 0 50 50" fill="none" xmlns="http://www.w3.org/2000/svg">
<path d="M8.33333 16.6667C9.48393 16.6667 10.4167 15.7339 10.4167 14.5833C10.4167 13.4327 9.48393 12.5 8.33333 12.5C7.18274 12.5 6.25 13.4327 6.25 14.5833C6.25 15.7339 7.18274 16.6667 8.33333 16.6667Z" fill="black"/>
<path d="M8.33333 27.0832C9.48393 27.0832 10.4167 26.1504 10.4167 24.9998C10.4167 23.8492 9.48393 22.9165 8.33333 22.9165C7.18274 22.9165 6.25 23.8492 6.25 24.9998C6.25 26.1504 7.18274 27.0832 8.33333 27.0832Z" fill="black"/>
<path d="M8.33333 37.5002C9.48393 37.5002 10.4167 36.5674 10.4167 35.4168C10.4167 34.2662 9.48393 33.3335 8.33333 33.3335C7.18274 33.3335 6.25 34.2662 6.25 35.4168C6.25 36.5674 7.18274 37.5002 8.33333 37.5002Z" fill="black"/>
<path d="M41.7918 22.9165H16.5418C15.4603 22.9165 14.5835 23.7933 14.5835 24.8748V25.1248C14.5835 26.2064 15.4603 27.0832 16.5418 27.0832H41.7918C42.8734 27.0832 43.7502 26.2064 43.7502 25.1248V24.8748C43.7502 23.7933 42.8734 22.9165 41.7918 22.9165Z" fill="black"/>
<path d="M41.7918 33.3335H16.5418C15.4603 33.3335 14.5835 34.2103 14.5835 35.2918V35.5418C14.5835 36.6234 15.4603 37.5002 16.5418 37.5002H41.7918C42.8734 37.5002 43.7502 36.6234 43.7502 35.5418V35.2918C43.7502 34.2103 42.8734 33.3335 41.7918 33.3335Z" fill="black"/>
<path d="M41.7918 12.5H16.5418C15.4603 12.5 14.5835 13.3768 14.5835 14.4583V14.7083C14.5835 15.7899 15.4603 16.6667 16.5418 16.6667H41.7918C42.8734 16.6667 43.7502 15.7899 43.7502 14.7083V14.4583C43.7502 13.3768 42.8734 12.5 41.7918 12.5Z" fill="black"/>
</svg>
