<svg width="50" height="50" viewBox="0 0 50 50" fill="none" xmlns="http://www.w3.org/2000/svg">
<path d="M7.5 21.3583H6.03516V23.8583H7.5V34.0249H13.6036C14.1551 36.0536 16.008 37.5518 18.2089 37.5518C20.4099 37.5518 22.2627 36.0536 22.8143 34.0249H31.5247H34.0247H34.874C35.4256 36.0536 37.2784 37.5518 39.4794 37.5518C41.6803 37.5518 43.5329 36.0536 44.0844 34.0249H46.875V21.8643L43.0457 14.205H34.0247V9.73535H7.5V15.1083H3.125V17.6083H7.5V21.3583ZM18.2089 35.0518C16.9534 35.0518 15.932 34.0304 15.932 32.7749C15.932 31.5194 16.9534 30.498 18.2089 30.498C19.4644 30.498 20.4858 31.5194 20.4858 32.7749C20.4858 34.0304 19.4644 35.0518 18.2089 35.0518ZM39.4794 35.0518C38.2239 35.0518 37.2025 34.0304 37.2025 32.7749C37.2025 31.5194 38.2239 30.498 39.4794 30.498C40.7346 30.498 41.756 31.5194 41.756 32.7749C41.756 34.0304 40.7346 35.0518 39.4794 35.0518ZM43.6024 20.9094H38.75V16.705H41.5002L43.6024 20.9094ZM36.25 16.705V23.4094H44.375V31.5249H44.0844C43.5329 29.4962 41.6803 27.998 39.4794 27.998C37.2784 27.998 35.4256 29.4962 34.874 31.5249H34.0247V16.705H36.25ZM10 12.2354H31.5247V14.205V31.5249H22.8143C22.2627 29.4962 20.4099 27.998 18.2089 27.998C16.008 27.998 14.1551 29.4962 13.6036 31.5249H10V23.8583H15.2148V21.3583H10V17.6083H12.3047V15.1083H10V12.2354Z" fill="black"/>
<path d="M13.555 37.7642H4.375V40.2642H13.555V37.7642Z" fill="black"/>
</svg>
