<svg width="50" height="50" viewBox="0 0 50 50" fill="none" xmlns="http://www.w3.org/2000/svg">
<path d="M47.4057 47.4119C45.0884 49.7099 41.3864 49.5272 39.3095 47.1619L31.3672 38.1907C34.3343 36.3371 36.7822 33.74 38.1749 31.3734L47.1557 39.3157C49.7615 41.6619 49.473 45.3253 47.4057 47.4119ZM25.3865 18.4792V32.8061C28.3291 31.65 30.8844 29.1285 31.9249 27.1523V18.4792H25.3865V18.4792ZM16.9249 9.70996V33.4503C19.1393 33.9939 21.4189 33.9612 23.4634 33.4407V9.70996H16.9249ZM8.46338 23.4408V27.133C9.89047 29.5759 12.1787 31.66 15.0018 32.8158V23.4408H8.46338V23.4408Z" fill="black"/>
<path d="M6.5899 33.8125C-0.907103 26.3146 -0.908036 14.1061 6.5899 6.59836C14.109 -0.918764 26.2792 -0.91863 33.8069 6.59742C41.1689 13.9713 41.4274 26.1964 33.8069 33.813C26.4216 41.1946 14.2322 41.4657 6.5899 33.8125ZM9.19798 9.20544C3.13681 15.275 3.13681 25.1444 9.19798 31.206C15.3158 37.3335 25.1665 37.2384 31.1994 31.2055C37.389 25.0159 37.1228 15.1379 31.1985 9.20501C25.1189 3.13235 15.277 3.12731 9.19798 9.20544Z" fill="black"/>
</svg>
