<svg width="50" height="50" viewBox="0 0 50 50" fill="none" xmlns="http://www.w3.org/2000/svg">
<path d="M25.0003 39.5835C25.4124 39.5835 25.8152 39.4613 26.1578 39.2324C26.5004 39.0035 26.7674 38.6781 26.9251 38.2974C27.0828 37.9167 27.124 37.4978 27.0436 37.0937C26.9632 36.6896 26.7648 36.3184 26.4735 36.027C26.1821 35.7357 25.8109 35.5372 25.4068 35.4569C25.0026 35.3765 24.5837 35.4177 24.2031 35.5754C23.8224 35.7331 23.497 36.0001 23.2681 36.3427C23.0392 36.6853 22.917 37.0881 22.917 37.5002C22.917 38.0527 23.1365 38.5826 23.5272 38.9733C23.9179 39.364 24.4478 39.5835 25.0003 39.5835ZM35.417 39.5835C35.829 39.5835 36.2318 39.4613 36.5744 39.2324C36.917 39.0035 37.1841 38.6781 37.3417 38.2974C37.4994 37.9167 37.5407 37.4978 37.4603 37.0937C37.3799 36.6896 37.1815 36.3184 36.8901 36.027C36.5988 35.7357 36.2276 35.5372 35.8234 35.4569C35.4193 35.3765 35.0004 35.4177 34.6197 35.5754C34.2391 35.7331 33.9137 36.0001 33.6848 36.3427C33.4558 36.6853 33.3337 37.0881 33.3337 37.5002C33.3337 38.0527 33.5532 38.5826 33.9439 38.9733C34.3346 39.364 34.8645 39.5835 35.417 39.5835ZM35.417 31.2502C35.829 31.2502 36.2318 31.128 36.5744 30.8991C36.917 30.6701 37.1841 30.3448 37.3417 29.9641C37.4994 29.5834 37.5407 29.1645 37.4603 28.7604C37.3799 28.3563 37.1815 27.985 36.8901 27.6937C36.5988 27.4023 36.2276 27.2039 35.8234 27.1235C35.4193 27.0431 35.0004 27.0844 34.6197 27.2421C34.2391 27.3998 33.9137 27.6668 33.6848 28.0094C33.4558 28.352 33.3337 28.7548 33.3337 29.1668C33.3337 29.7194 33.5532 30.2493 33.9439 30.64C34.3346 31.0307 34.8645 31.2502 35.417 31.2502ZM25.0003 31.2502C25.4124 31.2502 25.8152 31.128 26.1578 30.8991C26.5004 30.6701 26.7674 30.3448 26.9251 29.9641C27.0828 29.5834 27.124 29.1645 27.0436 28.7604C26.9632 28.3563 26.7648 27.985 26.4735 27.6937C26.1821 27.4023 25.8109 27.2039 25.4068 27.1235C25.0026 27.0431 24.5837 27.0844 24.2031 27.2421C23.8224 27.3998 23.497 27.6668 23.2681 28.0094C23.0392 28.352 22.917 28.7548 22.917 29.1668C22.917 29.7194 23.1365 30.2493 23.5272 30.64C23.9179 31.0307 24.4478 31.2502 25.0003 31.2502ZM39.5837 6.25016H37.5003V4.16683C37.5003 3.6143 37.2808 3.08439 36.8901 2.69369C36.4994 2.30299 35.9695 2.0835 35.417 2.0835C34.8645 2.0835 34.3346 2.30299 33.9439 2.69369C33.5532 3.08439 33.3337 3.6143 33.3337 4.16683V6.25016H16.667V4.16683C16.667 3.6143 16.4475 3.08439 16.0568 2.69369C15.6661 2.30299 15.1362 2.0835 14.5837 2.0835C14.0311 2.0835 13.5012 2.30299 13.1105 2.69369C12.7198 3.08439 12.5003 3.6143 12.5003 4.16683V6.25016H10.417C8.75939 6.25016 7.16968 6.90864 5.99758 8.08075C4.82547 9.25285 4.16699 10.8426 4.16699 12.5002V41.6668C4.16699 43.3244 4.82547 44.9141 5.99758 46.0862C7.16968 47.2583 8.75939 47.9168 10.417 47.9168H39.5837C41.2413 47.9168 42.831 47.2583 44.0031 46.0862C45.1752 44.9141 45.8337 43.3244 45.8337 41.6668V12.5002C45.8337 10.8426 45.1752 9.25285 44.0031 8.08075C42.831 6.90864 41.2413 6.25016 39.5837 6.25016ZM41.667 41.6668C41.667 42.2194 41.4475 42.7493 41.0568 43.14C40.6661 43.5307 40.1362 43.7502 39.5837 43.7502H10.417C9.86446 43.7502 9.33455 43.5307 8.94385 43.14C8.55315 42.7493 8.33366 42.2194 8.33366 41.6668V22.9168H41.667V41.6668ZM41.667 18.7502H8.33366V12.5002C8.33366 11.9476 8.55315 11.4177 8.94385 11.027C9.33455 10.6363 9.86446 10.4168 10.417 10.4168H12.5003V12.5002C12.5003 13.0527 12.7198 13.5826 13.1105 13.9733C13.5012 14.364 14.0311 14.5835 14.5837 14.5835C15.1362 14.5835 15.6661 14.364 16.0568 13.9733C16.4475 13.5826 16.667 13.0527 16.667 12.5002V10.4168H33.3337V12.5002C33.3337 13.0527 33.5532 13.5826 33.9439 13.9733C34.3346 14.364 34.8645 14.5835 35.417 14.5835C35.9695 14.5835 36.4994 14.364 36.8901 13.9733C37.2808 13.5826 37.5003 13.0527 37.5003 12.5002V10.4168H39.5837C40.1362 10.4168 40.6661 10.6363 41.0568 11.027C41.4475 11.4177 41.667 11.9476 41.667 12.5002V18.7502ZM14.5837 31.2502C14.9957 31.2502 15.3985 31.128 15.7411 30.8991C16.0837 30.6701 16.3507 30.3448 16.5084 29.9641C16.6661 29.5834 16.7073 29.1645 16.627 28.7604C16.5466 28.3563 16.3482 27.985 16.0568 27.6937C15.7654 27.4023 15.3942 27.2039 14.9901 27.1235C14.586 27.0431 14.1671 27.0844 13.7864 27.2421C13.4057 27.3998 13.0804 27.6668 12.8514 28.0094C12.6225 28.352 12.5003 28.7548 12.5003 29.1668C12.5003 29.7194 12.7198 30.2493 13.1105 30.64C13.5012 31.0307 14.0311 31.2502 14.5837 31.2502ZM14.5837 39.5835C14.9957 39.5835 15.3985 39.4613 15.7411 39.2324C16.0837 39.0035 16.3507 38.6781 16.5084 38.2974C16.6661 37.9167 16.7073 37.4978 16.627 37.0937C16.5466 36.6896 16.3482 36.3184 16.0568 36.027C15.7654 35.7357 15.3942 35.5372 14.9901 35.4569C14.586 35.3765 14.1671 35.4177 13.7864 35.5754C13.4057 35.7331 13.0804 36.0001 12.8514 36.3427C12.6225 36.6853 12.5003 37.0881 12.5003 37.5002C12.5003 38.0527 12.7198 38.5826 13.1105 38.9733C13.5012 39.364 14.0311 39.5835 14.5837 39.5835Z" fill="black"/>
</svg>
