<svg width="50" height="50" viewBox="0 0 50 50" fill="none" xmlns="http://www.w3.org/2000/svg">
<path d="M40.4791 27.0415C40.5624 26.3748 40.6249 25.7082 40.6249 24.9998C40.6249 24.2915 40.5624 23.6248 40.4791 22.9582L44.8749 19.5207C45.2707 19.2082 45.3749 18.6457 45.1249 18.1873L40.9582 10.979C40.7082 10.5207 40.1457 10.354 39.6874 10.5207L34.4999 12.604C33.4166 11.7707 32.2499 11.0832 30.9791 10.5623L30.1874 5.0415C30.1249 4.5415 29.6874 4.1665 29.1666 4.1665H20.8332C20.3124 4.1665 19.8749 4.5415 19.8124 5.0415L19.0207 10.5623C17.7499 11.0832 16.5832 11.7915 15.4999 12.604L10.3124 10.5207C9.83324 10.3332 9.29158 10.5207 9.04158 10.979L4.87491 18.1873C4.60408 18.6457 4.72908 19.2082 5.12491 19.5207L9.52074 22.9582C9.43741 23.6248 9.37491 24.3123 9.37491 24.9998C9.37491 25.6873 9.43741 26.3748 9.52074 27.0415L5.12491 30.479C4.72908 30.7915 4.62491 31.354 4.87491 31.8123L9.04158 39.0207C9.29158 39.479 9.85408 39.6457 10.3124 39.479L15.4999 37.3957C16.5832 38.229 17.7499 38.9165 19.0207 39.4373L19.8124 44.9582C19.8749 45.4582 20.3124 45.8332 20.8332 45.8332H29.1666C29.6874 45.8332 30.1249 45.4582 30.1874 44.9582L30.9791 39.4373C32.2499 38.9165 33.4166 38.2082 34.4999 37.3957L39.6874 39.479C40.1666 39.6665 40.7082 39.479 40.9582 39.0207L45.1249 31.8123C45.3749 31.354 45.2707 30.7915 44.8749 30.479L40.4791 27.0415ZM24.9999 32.2915C20.9791 32.2915 17.7082 29.0207 17.7082 24.9998C17.7082 20.979 20.9791 17.7082 24.9999 17.7082C29.0207 17.7082 32.2916 20.979 32.2916 24.9998C32.2916 29.0207 29.0207 32.2915 24.9999 32.2915Z" fill="black"/>
</svg>
