<svg width="50" height="50" viewBox="0 0 50 50" fill="none" xmlns="http://www.w3.org/2000/svg">
<path d="M7.80081 3.11621C5.22979 3.11621 3.11426 5.23172 3.11426 7.8027V42.1994C3.11426 44.7704 5.22983 46.8859 7.80081 46.8859H42.2004C44.7714 46.8859 46.8839 44.7704 46.8839 42.1994V7.8027C46.8839 5.23172 44.7714 3.11621 42.2004 3.11621H7.80081ZM7.80081 6.24276H23.4359V23.438H6.24371V7.8027C6.24371 6.90976 6.90776 6.24276 7.80081 6.24276ZM26.5623 6.24276H42.2004C43.0934 6.24276 43.7575 6.90976 43.7575 7.8027V23.438H26.5623V6.24276ZM14.8169 10.1323C13.9524 10.1375 13.2589 10.8493 13.269 11.7139V14.0558H10.9272C8.79622 14.0145 8.79622 17.2293 10.9272 17.182H13.269V19.5268C13.2217 21.6577 16.4426 21.6577 16.3954 19.5268V17.182H18.7524C20.8834 17.2233 20.8834 14.0085 18.7524 14.0558H16.3954V11.7139C16.4056 10.8374 15.6934 10.1238 14.8169 10.1323ZM31.2488 14.0558C29.1178 14.0145 29.1178 17.2293 31.2488 17.182H39.0709C41.2019 17.2233 41.2019 14.0085 39.0709 14.0558H31.2488ZM6.24371 26.5643H23.4359V43.7595H7.80081C6.90772 43.7595 6.24371 43.0925 6.24371 42.1994V26.5643ZM26.5623 26.5643H43.7575V42.1994C43.7575 43.0925 43.0935 43.7595 42.2004 43.7595H26.5623V26.5643ZM31.0992 29.6907C30.6851 29.7117 30.2961 29.8961 30.0176 30.2034C29.7391 30.5107 29.5939 30.9159 29.6137 31.3301C29.6335 31.7443 29.8167 32.1337 30.1232 32.413C30.4298 32.6923 30.8345 32.8388 31.2488 32.8201H39.0709C39.4852 32.819 39.8821 32.6537 40.1746 32.3604C40.4671 32.0671 40.6313 31.6697 40.6313 31.2555C40.6313 30.8412 40.4671 30.4439 40.1746 30.1506C39.8821 29.8573 39.4852 29.6918 39.0709 29.6907H31.2488C31.199 29.6883 31.1491 29.6883 31.0992 29.6907ZM12.0569 30.0398C10.6533 30.0427 9.96438 31.7503 10.973 32.7264L12.6309 34.3844L10.973 36.0391C9.43484 37.5083 11.6998 39.7858 13.1774 38.2558L14.8383 36.5917L16.5022 38.2558C17.979 39.8516 20.3096 37.505 18.7035 36.0391L17.0487 34.3842L18.7035 32.7262C19.7292 31.7347 18.9999 30.0002 17.5739 30.0396C17.1688 30.0514 16.7846 30.2221 16.5022 30.5126L14.8383 32.1731L13.1774 30.5123C12.8831 30.2099 12.4789 30.0392 12.0569 30.0392V30.0398ZM31.0992 35.9472C30.6916 35.9765 30.3116 36.1641 30.0404 36.4698C29.7692 36.7756 29.6283 37.1752 29.6478 37.5834C29.6674 37.9916 29.8458 38.3761 30.1449 38.6546C30.4441 38.933 30.8403 39.0833 31.2488 39.0736H39.0709C39.2793 39.0785 39.4866 39.0418 39.6806 38.9654C39.8745 38.8891 40.0513 38.7746 40.2004 38.629C40.3496 38.4833 40.4681 38.3095 40.549 38.1174C40.6299 37.9252 40.6716 37.7188 40.6716 37.5104C40.6716 37.3019 40.6299 37.0957 40.549 36.9036C40.4681 36.7115 40.3496 36.5374 40.2004 36.3918C40.0513 36.2462 39.8745 36.1319 39.6806 36.0555C39.4866 35.9792 39.2793 35.9423 39.0709 35.9472H31.2488C31.199 35.9448 31.1491 35.9448 31.0992 35.9472Z" fill="black"/>
</svg>
