<svg width="50" height="50" viewBox="0 0 50 50" fill="none" xmlns="http://www.w3.org/2000/svg">
<path d="M39.5834 16.6665H37.5001V10.4165C37.5001 8.7589 36.8416 7.16919 35.6695 5.99709C34.4974 4.82498 32.9077 4.1665 31.2501 4.1665H10.4167C8.75915 4.1665 7.16943 4.82498 5.99733 5.99709C4.82523 7.16919 4.16675 8.7589 4.16675 10.4165V35.4165C4.1688 35.8278 4.29256 36.2293 4.52242 36.5704C4.75228 36.9115 5.07796 37.1769 5.45841 37.3332C5.70566 37.4498 5.9768 37.5069 6.25008 37.4998C6.52426 37.5014 6.79606 37.4489 7.04989 37.3452C7.30372 37.2415 7.53458 37.0888 7.72925 36.8957L13.5834 31.0207H16.6667V34.0207C16.6667 35.6783 17.3252 37.268 18.4973 38.4401C19.6694 39.6122 21.2591 40.2707 22.9167 40.2707H37.3334L42.2709 45.229C42.4656 45.4221 42.6964 45.5749 42.9503 45.6785C43.2041 45.7822 43.4759 45.8348 43.7501 45.8332C44.0234 45.8402 44.2945 45.7831 44.5417 45.6665C44.9222 45.5102 45.2479 45.2448 45.4777 44.9037C45.7076 44.5626 45.8314 44.1611 45.8334 43.7498V22.9165C45.8334 21.2589 45.1749 19.6692 44.0028 18.4971C42.8307 17.325 41.241 16.6665 39.5834 16.6665ZM16.6667 22.9165V26.854H12.7292C12.4551 26.8524 12.1833 26.905 11.9294 27.0086C11.6756 27.1123 11.4447 27.2651 11.2501 27.4582L8.33342 30.3957V10.4165C8.33342 9.86397 8.55291 9.33407 8.94361 8.94337C9.33431 8.55266 9.86421 8.33317 10.4167 8.33317H31.2501C31.8026 8.33317 32.3325 8.55266 32.7232 8.94337C33.1139 9.33407 33.3334 9.86397 33.3334 10.4165V16.6665H22.9167C21.2591 16.6665 19.6694 17.325 18.4973 18.4971C17.3252 19.6692 16.6667 21.2589 16.6667 22.9165ZM41.6668 38.729L39.5834 36.6457C39.3905 36.4488 39.1604 36.2922 38.9065 36.1849C38.6526 36.0776 38.3799 36.0218 38.1043 36.0207H22.9167C22.3642 36.0207 21.8343 35.8012 21.4436 35.4105C21.0529 35.0198 20.8334 34.4899 20.8334 33.9373V22.9165C20.8334 22.364 21.0529 21.8341 21.4436 21.4434C21.8343 21.0527 22.3642 20.8332 22.9167 20.8332H39.5834C40.136 20.8332 40.6659 21.0527 41.0566 21.4434C41.4473 21.8341 41.6668 22.364 41.6668 22.9165V38.729Z" fill="black"/>
</svg>
