<svg width="50" height="50" viewBox="0 0 50 50" fill="none" xmlns="http://www.w3.org/2000/svg">
<path fill-rule="evenodd" clip-rule="evenodd" d="M1.125 4.6875C1.125 3.58293 2.02043 2.6875 3.125 2.6875H6.65052C7.48482 2.6875 8.29265 2.98031 8.93318 3.51488C9.57372 4.04946 10.0063 4.79188 10.1556 5.61272L15.3055 33.9375H35.9375C37.0421 33.9375 37.9375 34.8329 37.9375 35.9375C37.9375 37.0421 37.0421 37.9375 35.9375 37.9375H13.6364C12.6698 37.9375 11.8415 37.2463 11.6686 36.2953L6.28539 6.6875H3.125C2.02043 6.6875 1.125 5.79207 1.125 4.6875Z" fill="black"/>
<path fill-rule="evenodd" clip-rule="evenodd" d="M15.625 37.9375C14.5722 37.9375 13.7188 38.791 13.7188 39.8438C13.7188 40.8965 14.5722 41.75 15.625 41.75C16.6778 41.75 17.5312 40.8965 17.5312 39.8438C17.5312 38.791 16.6778 37.9375 15.625 37.9375ZM9.71875 39.8438C9.71875 36.5818 12.3631 33.9375 15.625 33.9375C18.8869 33.9375 21.5312 36.5818 21.5312 39.8438C21.5312 43.1057 18.8869 45.75 15.625 45.75C12.3631 45.75 9.71875 43.1057 9.71875 39.8438Z" fill="black"/>
<path fill-rule="evenodd" clip-rule="evenodd" d="M35.9375 37.9375C34.8847 37.9375 34.0312 38.791 34.0312 39.8438C34.0312 40.8965 34.8847 41.75 35.9375 41.75C36.9903 41.75 37.8438 40.8965 37.8438 39.8438C37.8438 38.791 36.9903 37.9375 35.9375 37.9375ZM30.0312 39.8438C30.0312 36.5818 32.6756 33.9375 35.9375 33.9375C39.1994 33.9375 41.8438 36.5818 41.8438 39.8438C41.8438 43.1057 39.1994 45.75 35.9375 45.75C32.6756 45.75 30.0312 43.1057 30.0312 39.8438Z" fill="black"/>
<path fill-rule="evenodd" clip-rule="evenodd" d="M7.375 12.5C7.375 11.3954 8.27043 10.5 9.375 10.5H42.1875C42.7805 10.5 43.343 10.7632 43.723 11.2185C44.103 11.6738 44.2613 12.2743 44.1552 12.8578L41.7809 25.9168C41.5662 27.0976 40.9438 28.1657 40.0224 28.9347C39.1009 29.7038 37.9388 30.125 36.7385 30.125H12.2159C11.1113 30.125 10.2159 29.2296 10.2159 28.125C10.2159 27.0204 11.1113 26.125 12.2159 26.125H36.7385C37.002 26.125 37.2571 26.0325 37.4594 25.8637C37.6617 25.6949 37.7983 25.4605 37.8454 25.2012L39.7911 14.5H9.375C8.27043 14.5 7.375 13.6046 7.375 12.5Z" fill="black"/>
</svg>
