<svg width="50" height="50" viewBox="0 0 50 50" fill="none" xmlns="http://www.w3.org/2000/svg">
<path d="M18.1564 48.211C19.373 49.3598 20.983 49.9998 22.6564 49.9998C24.3297 49.9998 25.9397 49.3598 27.1564 48.211C34.4532 41.4063 38.3907 33.8126 39.922 23.5938C40.2853 21.1744 39.7779 18.7045 38.4903 16.6242C37.2026 14.5439 35.2183 12.9883 32.8907 12.2344C34.0062 10.5896 34.4967 8.59997 34.2735 6.62507C34.2489 6.4121 34.1807 6.20648 34.0732 6.02101C33.9657 5.83553 33.8211 5.67416 33.6485 5.54695C32.7605 4.89048 31.7498 4.4188 30.6763 4.15981C29.6028 3.90082 28.4882 3.85978 27.3985 4.03914C26.5319 2.29624 25.0801 0.913539 23.297 0.132886C23.0999 0.0468501 22.8871 0.00244141 22.672 0.00244141C22.4569 0.00244141 22.2441 0.0468501 22.047 0.132886C20.2643 0.914101 18.8126 2.29665 17.9454 4.03914C16.8594 3.86302 15.7492 3.90568 14.68 4.16461C13.6107 4.42354 12.604 4.89352 11.7189 5.54695C11.5463 5.67416 11.4018 5.83553 11.2942 6.02101C11.1867 6.20648 11.1185 6.4121 11.0939 6.62507C10.8758 8.60073 11.3688 10.5894 12.4845 12.2344C10.1545 12.9871 8.16811 14.5437 6.88008 16.626C5.59204 18.7083 5.08631 21.1808 5.45324 23.6016C6.92199 33.8126 10.8595 41.4063 18.1564 48.211ZM22.6564 40.8282L20.4454 38.6173L22.6564 36.4063L24.8673 38.6173L22.6564 40.8282ZM22.6564 23.3204L20.4454 21.0938L22.6564 18.8985L24.8673 21.0938L22.6564 23.3204ZM27.3439 32.3673L25.1329 30.1563L27.3439 27.9532L29.5548 30.1563L27.3439 32.3673ZM34.2423 21.0938L32.0314 23.3204L29.8204 21.0938L32.0314 18.8985L34.2423 21.0938ZM26.0939 7.74226C26.3722 7.58732 26.6622 7.45411 26.961 7.34382C27.6497 7.10047 28.3819 7.00462 29.11 7.06249C29.8382 7.12037 30.546 7.33067 31.1876 7.67976C31.1687 8.54258 30.9349 9.38705 30.5072 10.1367C30.0796 10.8863 29.4717 11.5174 28.7386 11.9728C28.0055 12.4281 27.1703 12.6934 26.3088 12.7446C25.4473 12.7957 24.5866 12.6311 23.8048 12.2657C23.7005 12.2244 23.601 12.172 23.5079 12.1094C23.528 11.2208 23.7765 10.3523 24.2293 9.58742C24.6822 8.82257 25.3243 8.18714 26.0939 7.74226ZM20.3751 6.31257C20.736 5.06773 21.5498 4.00307 22.6564 3.3282C23.3749 3.7728 23.9732 4.38717 24.3985 5.11726C22.5784 6.21827 21.2479 7.9735 20.6798 10.0235C20.346 9.3339 20.1699 8.57868 20.1642 7.81257C20.1592 7.30485 20.2303 6.79924 20.3751 6.31257ZM13.2814 23.3204L11.0704 21.0938L13.2814 18.8985L15.4923 21.0938L13.2814 23.3204ZM14.1251 7.69539C15.0282 7.19909 16.0609 6.98928 17.086 7.09382C17.086 7.32039 17.0392 7.55476 17.0392 7.78914C17.0408 9.56858 17.6162 11.3001 18.6798 12.7266C18.0053 12.6533 17.3535 12.4405 16.7657 12.1016L16.5782 11.9844C15.8442 11.5269 15.2356 10.8938 14.8073 10.1423C14.3791 9.3908 14.1446 8.54451 14.1251 7.67976V7.69539ZM17.9689 28.0079L20.1798 30.211L17.9689 32.3673L15.7579 30.1563L17.9689 28.0079Z" fill="black"/>
</svg>
