<svg width="50" height="50" viewBox="0 0 50 50" fill="none" xmlns="http://www.w3.org/2000/svg">
<path d="M39.5832 4.1665H10.4165C8.7589 4.1665 7.16919 4.82498 5.99709 5.99709C4.82498 7.16919 4.1665 8.7589 4.1665 10.4165V39.5832C4.1665 41.2408 4.82498 42.8305 5.99709 44.0026C7.16919 45.1747 8.7589 45.8332 10.4165 45.8332H39.5832C41.2408 45.8332 42.8305 45.1747 44.0026 44.0026C45.1747 42.8305 45.8332 41.2408 45.8332 39.5832V10.4165C45.8332 8.7589 45.1747 7.16919 44.0026 5.99709C42.8305 4.82498 41.2408 4.1665 39.5832 4.1665ZM10.4165 41.6665C9.86397 41.6665 9.33407 41.447 8.94337 41.0563C8.55266 40.6656 8.33317 40.1357 8.33317 39.5832V10.4165C8.33317 9.86397 8.55266 9.33407 8.94337 8.94337C9.33407 8.55266 9.86397 8.33317 10.4165 8.33317H16.6665V41.6665H10.4165ZM20.8332 41.6665V8.33317H29.1665V41.6665H20.8332ZM41.6665 39.5832C41.6665 40.1357 41.447 40.6656 41.0563 41.0563C40.6656 41.447 40.1357 41.6665 39.5832 41.6665H33.3332V8.33317H39.5832C40.1357 8.33317 40.6656 8.55266 41.0563 8.94337C41.447 9.33407 41.6665 9.86397 41.6665 10.4165V39.5832Z" fill="black"/>
</svg>
