<svg width="50" height="50" viewBox="0 0 50 50" fill="none" xmlns="http://www.w3.org/2000/svg">
<g clip-path="url(#clip0_714_256)">
<path d="M48.4375 46.875H3.125V40.625H6.25C6.6644 40.625 7.06183 40.4604 7.35485 40.1674C7.64788 39.8743 7.8125 39.4769 7.8125 39.0625C7.8125 38.6481 7.64788 38.2507 7.35485 37.9576C7.06183 37.6646 6.6644 37.5 6.25 37.5H3.125V32.8125C3.5394 32.8125 3.93683 32.6479 4.22985 32.3549C4.52288 32.0618 4.6875 31.6644 4.6875 31.25C4.6875 30.8356 4.52288 30.4382 4.22985 30.1451C3.93683 29.8521 3.5394 29.6875 3.125 29.6875V25H6.25C6.6644 25 7.06183 24.8354 7.35485 24.5424C7.64788 24.2493 7.8125 23.8519 7.8125 23.4375C7.8125 23.0231 7.64788 22.6257 7.35485 22.3326C7.06183 22.0396 6.6644 21.875 6.25 21.875H3.125V17.1875C3.5394 17.1875 3.93683 17.0229 4.22985 16.7299C4.52288 16.4368 4.6875 16.0394 4.6875 15.625C4.6875 15.2106 4.52288 14.8132 4.22985 14.5201C3.93683 14.2271 3.5394 14.0625 3.125 14.0625V9.375H6.25C6.6644 9.375 7.06183 9.21038 7.35485 8.91735C7.64788 8.62433 7.8125 8.2269 7.8125 7.8125C7.8125 7.3981 7.64788 7.00067 7.35485 6.70765C7.06183 6.41462 6.6644 6.25 6.25 6.25H3.125V1.5625C3.125 1.1481 2.96038 0.750671 2.66735 0.457646C2.37433 0.16462 1.9769 0 1.5625 0C1.1481 0 0.750671 0.16462 0.457646 0.457646C0.16462 0.750671 0 1.1481 0 1.5625L0 46.875C0 48.5984 1.40156 50 3.125 50H48.4375C48.8519 50 49.2493 49.8354 49.5424 49.5424C49.8354 49.2493 50 48.8519 50 48.4375C50 48.0231 49.8354 47.6257 49.5424 47.3326C49.2493 47.0396 48.8519 46.875 48.4375 46.875Z" fill="black"/>
<path d="M43.7499 26.5625C44.1643 26.5625 44.5617 26.3979 44.8548 26.1049C45.1478 25.8118 45.3124 25.4144 45.3124 25V17.1875C45.3124 17.0852 45.3015 16.982 45.2819 16.8812C45.2718 16.8344 45.2546 16.7914 45.2413 16.7461C45.2257 16.6937 45.214 16.6406 45.1929 16.5898C45.1702 16.5367 45.1398 16.4875 45.1116 16.4375C45.0905 16.3984 45.0733 16.3578 45.0491 16.3219C44.934 16.1502 44.7865 16.0026 44.6148 15.8875C44.578 15.8633 44.5374 15.8461 44.4991 15.825C44.4491 15.7977 44.3999 15.7672 44.3468 15.7438C44.296 15.7234 44.2429 15.7109 44.1905 15.6953C44.1452 15.682 44.1023 15.6648 44.0554 15.6547C43.9547 15.6354 43.8524 15.6255 43.7499 15.625H35.9374C35.523 15.625 35.1256 15.7896 34.8326 16.0826C34.5395 16.3757 34.3749 16.7731 34.3749 17.1875C34.3749 17.6019 34.5395 17.9993 34.8326 18.2924C35.1256 18.5854 35.523 18.75 35.9374 18.75H39.978L24.9999 33.7281L21.4171 30.1453C21.1241 29.8524 20.7267 29.6878 20.3124 29.6878C19.8981 29.6878 19.5007 29.8524 19.2077 30.1453L11.3952 37.9578C11.246 38.1019 11.127 38.2744 11.0451 38.465C10.9632 38.6556 10.9201 38.8607 10.9183 39.0681C10.9165 39.2756 10.956 39.4813 11.0346 39.6734C11.1131 39.8654 11.2292 40.0398 11.3759 40.1866C11.5226 40.3333 11.697 40.4493 11.889 40.5278C12.0811 40.6064 12.2868 40.6459 12.4943 40.6441C12.7018 40.6423 12.9068 40.5992 13.0974 40.5173C13.2881 40.4355 13.4605 40.3164 13.6046 40.1672L20.3124 33.4594L23.8952 37.0422C24.1882 37.3351 24.5856 37.4997 24.9999 37.4997C25.4142 37.4997 25.8116 37.3351 26.1046 37.0422L42.1874 20.9594V25C42.1874 25.4144 42.352 25.8118 42.6451 26.1049C42.9381 26.3979 43.3355 26.5625 43.7499 26.5625Z" fill="black"/>
</g>
<defs>
<clipPath id="clip0_714_256">
<rect width="50" height="50" fill="white"/>
</clipPath>
</defs>
</svg>
